<svg id="Layer_1" data-name="Layer 1" xmlns="http://www.w3.org/2000/svg" viewBox="0 0 2287 1024"><defs><style>.cls-1{fill:#222;}</style></defs><title>Artboard 1 copy 15</title><path class="cls-1" d="M1920.21,514.53q0-13.81-6.76-21.64t-18.78-7.81q-11.43,0-17.58,8.26t-6.16,23.29v35.16h49.28Z"/><path class="cls-1" d="M0,0V1024H2287V0ZM927.12,483.47,823.81,423.69V400.9A28.72,28.72,0,0,0,809.46,376L695,310,652.5,285.42V570.85l-99.29-57.34V428.24l-71-41,71-41v-60l-38.35,22.14L397.63,376a26.7,26.7,0,0,0-3.18,2.13,28.71,28.71,0,0,0-11.18,22.73v21h0a28.7,28.7,0,0,0,14.36,24.86l117.23,67.68,38.35,22.15L652.5,594,726,636.39,652.5,678.81v58.77L695,713,809.46,647a28.69,28.69,0,0,0,14.35-24.86V600.7a28.69,28.69,0,0,0-14.34-24.48L692.23,508.53l-19.71-11.39V378l61.31,35.29,90,51.95,82.24,47.48a42.15,42.15,0,0,1,21.07,35.76V674A42.18,42.18,0,0,1,906,710.5L823.82,758l-85.91,49.6L652.5,856.88,624.63,873a42.2,42.2,0,0,1-42.18,0l-29.24-16.88-79.94-46.16L301.05,710.5A42.19,42.19,0,0,1,280,674V539.51L383.27,599.3v22.8A28.7,28.7,0,0,0,397.63,647l117.23,67.69,38.35,22.14v-81l-79.94-46-90-52-82.22-47.48A42.16,42.16,0,0,1,280,473.8V349a42.19,42.19,0,0,1,21.09-36.53L383.27,265l90-52,79.94-46.16L582.45,150a42.2,42.2,0,0,1,42.18,0l27.87,16.09,85.41,49.32L906,312.5A42.18,42.18,0,0,1,927.12,349Zm407.09,149.15q0,34-12.77,58.14a86.39,86.39,0,0,1-37.11,37Q1260,740.49,1226,740.49q-34.26,0-58.9-12.77a87.72,87.72,0,0,1-37.71-37q-13.07-24.18-13.07-58.14V609.18l74.22-.6V632q0,16.53,9.31,26t25.85,9.46q16.21,0,25.09-9.31t8.86-25.54V594.46a33.46,33.46,0,0,0-6.76-20.89,62.16,62.16,0,0,0-17.43-15.32q-10.66-6.46-29-15.48-1.2-.6-2.25-1.2c-.7-.4-1.46-.8-2.25-1.2l-3.91-1.8q-24.33-12.32-41.47-25.69t-28.54-35.31q-11.43-21.93-11.42-54.09V401q0-33.36,12.77-57.25a85.89,85.89,0,0,1,37.11-36.5q24.35-12.63,58.59-12.62,33.36,0,57.4,12.62a85,85,0,0,1,36.65,36.8q12.63,24.19,12.62,58.15v24.64l-74.21.9V402.75q0-16.83-8.57-26.29T1225.13,367q-16.22,0-25.09,8.57t-8.86,23.58v29.15q0,12.33,6.46,21.33a57.21,57.21,0,0,0,16.23,15.18q9.75,6.17,27.19,14.87c2.2,1,4.46,2.11,6.76,3.31s4.66,2.4,7.06,3.6q.6.32,1,.6a8.34,8.34,0,0,0,1,.61q24.94,13.21,40.27,24.48T1323.39,544q10.81,20.43,10.82,52.28ZM1455.13,736h-27.34q-36.06,0-56.19-21.63t-20.13-61V299.08H1426V641.33q0,10.21,5.25,15.78t14.58,5.56h9.31Zm107,0h-74.52V424.08h74.52Zm0-363h-74.52V299.08h74.52Zm216.77,280.35q0,27.35-11.72,46.88t-34,29.89q-22.25,10.36-53.49,10.37-30.95,0-52.88-10.07T1593.32,701q-11.57-19.38-11.57-46.43V509.12q0-28.55,11.57-48.83t33.51-31q21.93-10.66,52.88-10.67t53.19,10.67q22.23,10.67,33.8,31.1t11.57,49.28v27H1705V516.33q0-14.72-6.31-22.84t-18-8.11q-11.41,0-17.73,8t-6.31,21.79V648.54q0,12,6.31,18.63t17.73,6.61q11.73,0,17.88-7.06t6.16-20V627.81l74.22.9Zm214.36-3q0,43-25.25,66.55t-70.91,23.59q-30.94,0-53-11.27a77.91,77.91,0,0,1-33.81-32.75q-11.71-21.48-11.72-51.83V520.24q0-32.16,11.42-55a78.92,78.92,0,0,1,32.9-34.71q21.48-11.87,51.84-11.87,30.94,0,52.73,11.57a78.36,78.36,0,0,1,33.36,33.81q11.55,22.23,11.56,53.78v88.34H1870.93V647q0,12.93,6.76,19.83t19.38,6.91q11.72,0,18-5.71t6.31-16.22V641l71.82.6Z"/></svg>