<svg id="Layer_1" data-name="Layer 1" xmlns="http://www.w3.org/2000/svg" viewBox="0 0 1280 1024"><defs><style>.cls-1{fill:#222;}</style></defs><title>Artboard 1 copy 14</title><path class="cls-1" d="M0,1024H1280V0H0ZM555.35,842.86q0,15.06-5.66,25.77A38.28,38.28,0,0,1,533.24,885q-10.79,5.65-25.83,5.66-15.2,0-26.11-5.66a38.94,38.94,0,0,1-16.71-16.39q-5.8-10.71-5.8-25.77V832.47l32.9-.26V842.6q0,7.32,4.13,11.52t11.45,4.19q7.2,0,11.12-4.13t3.93-11.32V826a14.88,14.88,0,0,0-3-9.26,27.52,27.52,0,0,0-7.73-6.79Q506.88,807,498.75,803c-.36-.18-.69-.36-1-.54l-1-.53-1.73-.8a112.38,112.38,0,0,1-18.38-11.38A47,47,0,0,1,464,774.14q-5.07-9.72-5.07-24v-10q0-14.77,5.67-25.37A38.06,38.06,0,0,1,481,698.62q10.8-5.6,26-5.6,14.78,0,25.44,5.6a37.75,37.75,0,0,1,16.25,16.31q5.58,10.73,5.59,25.77v10.93l-32.9.4V741q0-7.46-3.79-11.65T507,725.12q-7.2,0-11.12,3.8c-2.63,2.53-3.93,6-3.93,10.45v12.92a15.82,15.82,0,0,0,2.86,9.46,25.4,25.4,0,0,0,7.19,6.72q4.33,2.74,12.06,6.6c1,.44,2,.93,3,1.46s2.07,1.07,3.13,1.6a3.92,3.92,0,0,1,.47.27,3.28,3.28,0,0,0,.46.26A147.16,147.16,0,0,1,539,789.52a40.62,40.62,0,0,1,11.59,14.05q4.8,9.06,4.79,23.18ZM609,888.68H596.83q-16,0-24.9-9.59t-8.93-27V695h33v151.7c0,3,.77,5.36,2.33,7a8.45,8.45,0,0,0,6.46,2.46H609Zm47.42,0h-33V750.43h33Zm0-160.9h-33V695h33Zm96.08,124.27q0,12.12-5.19,20.78a33.53,33.53,0,0,1-15,13.25q-9.86,4.6-23.71,4.6t-23.44-4.46a32.66,32.66,0,0,1-14.85-13.06q-5.13-8.58-5.13-20.58V788.12q0-12.64,5.13-21.64a33.45,33.45,0,0,1,14.85-13.72Q694.78,748,708.5,748t23.58,4.73a33.27,33.27,0,0,1,15,13.78q5.13,9.06,5.13,21.85v12h-32.5v-9q0-6.52-2.8-10.13a10.6,10.6,0,0,0-15.85-.06q-2.79,3.52-2.79,9.65v59.14c0,3.55.93,6.31,2.79,8.26s4.49,2.93,7.86,2.93,6.1-1,7.93-3.13,2.73-5,2.73-8.86v-8.39l32.89.4Zm95-1.33q0,19-11.19,29.5t-31.43,10.46q-13.73,0-23.51-5a34.5,34.5,0,0,1-15-14.52q-5.21-9.51-5.2-23V793.05q0-14.25,5.06-24.38a35,35,0,0,1,14.59-15.38q9.51-5.26,23-5.26,13.72,0,23.38,5.13a34.71,34.71,0,0,1,14.78,15q5.13,9.86,5.13,23.84v39.16H793.26v18.12q0,5.72,3,8.79c2,2,4.86,3.06,8.59,3.06q5.19,0,8-2.53a9.23,9.23,0,0,0,2.8-7.19v-4.8l31.83.27Zm25.63-44.44h191.18v11.25H873.1ZM433,412.83l70.19,40.62v15.49A19.5,19.5,0,0,0,513,485.83l79.65,46,26.06,15V491.81l-54.31-31.25-61.15-35.31L447.37,393A28.65,28.65,0,0,1,433,368.19V283.42a28.65,28.65,0,0,1,14.33-24.82l55.86-32.25,61.15-35.3,54.31-31.36,19.87-11.47a28.64,28.64,0,0,1,28.65,0l18.94,10.93,58,33.51L858.4,258.6a28.67,28.67,0,0,1,14.32,24.82v91.33l-70.19-40.61V318.66a19.48,19.48,0,0,0-9.75-16.89L715,256.88,686.15,240.2V434.12l-67.46-38.95V337.24l-48.27-27.88,48.27-27.87V240.74l-26.06,15-79.65,46a21.19,21.19,0,0,0-2.15,1.44,19.54,19.54,0,0,0-7.6,15.45v14.28h0a19.53,19.53,0,0,0,9.75,16.9l79.65,46,26.06,15.05,67.46,38.95,49.91,28.83-49.91,28.82V547.4L715,530.72l77.76-44.89a20,20,0,0,0,2.17-1.45,19.52,19.52,0,0,0,7.58-15.44V454.4a19.49,19.49,0,0,0-9.74-16.63l-79.65-46-13.39-7.73v-81l41.65,24,61.13,35.3,55.88,32.25a28.65,28.65,0,0,1,14.31,24.3v85.28A28.67,28.67,0,0,1,858.4,529l-55.86,32.25L744.17,595l-58,33.5-18.94,10.93a28.64,28.64,0,0,1-28.65,0l-19.87-11.47-54.31-31.36L447.37,529A28.65,28.65,0,0,1,433,504.18ZM241.72,806.28H432.9v11.25H241.72Z"/><path class="cls-1" d="M815.1,790.52q0-6.13-3-9.59a10.43,10.43,0,0,0-8.33-3.46,9.14,9.14,0,0,0-7.79,3.66q-2.73,3.66-2.73,10.32V807H815.1Z"/></svg>