<svg id="Layer_1" data-name="Layer 1" xmlns="http://www.w3.org/2000/svg" viewBox="0 0 1024 1024"><defs><style>.cls-1{fill:#222;}</style></defs><title>Artboard 1 copy 13</title><path class="cls-1" d="M0,1024H1024V0H0ZM145.55,543.21l117,67.68V636.7a32.53,32.53,0,0,0,16.25,28.15l132.72,76.62,43.41,25.06V674.81l-90.5-52.08L262.5,563.91l-93.08-53.74a47.75,47.75,0,0,1-23.87-41.35V327.57a47.74,47.74,0,0,1,23.87-41.34l93.08-53.74,101.88-58.82,90.5-52.25L488,102.31a47.75,47.75,0,0,1,47.75,0l31.55,18.22L664,176.35,854.29,286.23a47.75,47.75,0,0,1,23.87,41.35V479.76L761.21,412.09V386.3A32.53,32.53,0,0,0,745,358.15L615.4,283.35l-48.12-27.78V578.68l-112.4-64.91V417.25l-80.43-46.44,80.43-46.44V256.46l-43.41,25.07L278.75,358.15a33.06,33.06,0,0,0-3.59,2.41A32.5,32.5,0,0,0,262.5,386.3v23.8h0a32.5,32.5,0,0,0,16.25,28.14l132.72,76.63,43.41,25.07,112.4,64.91,83.17,48-83.17,48v66.53l48.12-27.78L745,664.85a32.59,32.59,0,0,0,16.25-28.15V612.47A32.51,32.51,0,0,0,745,584.76L612.26,508.14l-22.32-12.89V360.33l69.4,39.95,101.87,58.81,93.09,53.75a47.74,47.74,0,0,1,23.86,40.48v142.1a47.75,47.75,0,0,1-23.87,41.35L761.22,790.5,664,846.65l-96.68,55.82-31.55,18.22a47.75,47.75,0,0,1-47.75,0l-33.1-19.11-90.5-52.25-195-112.56a47.75,47.75,0,0,1-23.87-41.35Z"/></svg>