<svg id="Layer_1" data-name="Layer 1" xmlns="http://www.w3.org/2000/svg" viewBox="0 0 1024 1024"><defs><style>.cls-1{fill:#222;}</style></defs><title>Artboard 1 copy 12</title><path class="cls-1" d="M461.67,856.09,490.91,873a42.2,42.2,0,0,0,42.18,0L561,856.88l85.41-49.32L732.28,758,814.5,710.5A42.2,42.2,0,0,0,835.58,674V548.44a42.15,42.15,0,0,0-21.07-35.76L732.27,465.2l-90-51.95L581,378V497.14l19.71,11.39,117.24,67.69a28.69,28.69,0,0,1,14.34,24.48v21.4A28.69,28.69,0,0,1,717.92,647L603.47,713,561,737.58V678.81l73.47-42.42L561,594l-99.29-57.34-38.35-22.15L306.08,446.79a28.72,28.72,0,0,1-14.35-24.86h0v-21a28.71,28.71,0,0,1,11.18-22.73,27.42,27.42,0,0,1,3.17-2.13l117.24-67.69,38.35-22.14v60l-71.05,41,71.05,41v85.27L561,570.85V285.42L603.47,310,717.92,376a28.72,28.72,0,0,1,14.35,24.86v22.79l103.31,59.78V349A42.2,42.2,0,0,0,814.5,312.5L646.37,215.44,561,166.12,533.09,150a42.2,42.2,0,0,0-42.18,0l-29.24,16.88-79.94,46.16-90,52L209.5,312.5A42.2,42.2,0,0,0,188.42,349V473.8a42.17,42.17,0,0,0,21.08,36.52l82.23,47.48,90,52,79.94,46v81l-38.35-22.14L306.08,647a28.72,28.72,0,0,1-14.35-24.86V599.3L188.42,539.51V674A42.2,42.2,0,0,0,209.5,710.5l172.23,99.43Z"/><path class="cls-1" d="M0,1024H1024V0H0ZM512,95.91C741.52,95.91,927.59,282,927.59,511.5S741.52,927.09,512,927.09,96.41,741,96.41,511.5,282.48,95.91,512,95.91Z"/></svg>