<svg id="Layer_1" data-name="Layer 1" xmlns="http://www.w3.org/2000/svg" viewBox="0 0 1024 1024"><defs><style>.cls-1{fill:#222;stroke:#ff9000;stroke-miterlimit:10;stroke-width:15px;}</style></defs><title>Artboard 1 copy 19</title><path class="cls-1" d="M902,253l-361-208.43a57.84,57.84,0,0,0-57.86,0L122.05,253a57.87,57.87,0,0,0-28.94,50.12V719.93a57.87,57.87,0,0,0,28.94,50.12l361,208.43a57.84,57.84,0,0,0,57.86,0L902,770.05a57.87,57.87,0,0,0,28.94-50.12V303.07A57.87,57.87,0,0,0,902,253ZM844.54,482.68,738.32,421.22V397.79a29.52,29.52,0,0,0-14.76-25.56L605.89,304.3l-43.7-25.24V572.51l-102.08-59V425.9l-73-42.18,73-42.17V279.88l-39.43,22.76L300.15,372.23a29,29,0,0,0-3.26,2.19,29.51,29.51,0,0,0-11.5,23.37v21.62h0A29.52,29.52,0,0,0,300.15,445l120.53,69.59,39.43,22.77,102.08,58.95,75.54,43.62-75.54,43.61v60.43l43.7-25.24,117.67-67.93a29.54,29.54,0,0,0,14.76-25.56v-22A29.52,29.52,0,0,0,723.57,578L603,508.45l-20.27-11.71V374.21l63,36.28,92.52,53.41,84.55,48.81a43.38,43.38,0,0,1,21.67,36.77V678.54a43.37,43.37,0,0,1-21.69,37.55l-84.52,48.8-88.33,51-87.81,50.69-28.65,16.55a43.41,43.41,0,0,1-43.37,0l-30.06-17.36-82.19-47.45L200.86,716.09a43.36,43.36,0,0,1-21.68-37.55V540.3l106.21,61.47v23.44a29.52,29.52,0,0,0,14.76,25.56l120.53,69.59,39.43,22.76v-83.3l-82.19-47.3L285.39,559.1l-84.53-48.81a43.36,43.36,0,0,1-21.68-37.55V344.46a43.34,43.34,0,0,1,21.68-37.55l84.53-48.81,92.53-53.42,82.19-47.45,30.06-17.36a43.41,43.41,0,0,1,43.37,0l28.65,16.55L650,207.11l172.85,99.8a43.37,43.37,0,0,1,21.69,37.55Z"/></svg>