<svg id="Layer_1" data-name="Layer 1" xmlns="http://www.w3.org/2000/svg" viewBox="0 0 1024 1024"><defs><style>.cls-1{fill:#222;}.cls-2{fill:#fff;}</style></defs><title>Artboard 1 copy 8</title><rect class="cls-1" width="1024" height="1024"/><path class="cls-2" d="M512,95.91C282.48,95.91,96.41,282,96.41,511.5S282.48,927.09,512,927.09,927.59,741,927.59,511.5,741.52,95.91,512,95.91ZM717.92,376,603.47,310,561,285.42V570.85l-99.29-57.34V428.25l-71.05-41,71.05-41v-60l-38.35,22.14L306.08,376a27.42,27.42,0,0,0-3.17,2.13,28.71,28.71,0,0,0-11.18,22.73v21h0a28.72,28.72,0,0,0,14.35,24.86l117.24,67.68,38.35,22.15L561,594l73.47,42.43L561,678.81v58.77L603.47,713,717.92,647a28.69,28.69,0,0,0,14.35-24.86V600.7a28.69,28.69,0,0,0-14.34-24.48L600.69,508.53,581,497.14V378l61.31,35.29,90,51.95,82.24,47.48a42.15,42.15,0,0,1,21.07,35.76V674A42.2,42.2,0,0,1,814.5,710.5L732.28,758l-85.91,49.6L561,856.88,533.09,873a42.2,42.2,0,0,1-42.18,0l-29.24-16.88-79.94-46.16L209.5,710.5A42.2,42.2,0,0,1,188.42,674V539.51L291.73,599.3v22.8A28.72,28.72,0,0,0,306.08,647l117.24,67.69,38.35,22.14v-81l-79.94-46-90-52L209.5,510.32a42.17,42.17,0,0,1-21.08-36.52V349A42.2,42.2,0,0,1,209.5,312.5L291.73,265l90-52,79.94-46.16L490.91,150a42.2,42.2,0,0,1,42.18,0L561,166.12l85.41,49.32L814.5,312.5A42.2,42.2,0,0,1,835.58,349V483.47L732.27,423.69V400.9A28.72,28.72,0,0,0,717.92,376Z"/></svg>