<svg id="Layer_1" data-name="Layer 1" xmlns="http://www.w3.org/2000/svg" viewBox="0 0 1280 1024"><defs><style>.cls-1{fill:#222;}.cls-2{fill:#fff;}</style></defs><title>Artboard 1 copy 10</title><rect class="cls-1" width="1280" height="1024"/><path class="cls-2" d="M539,789.52a147.16,147.16,0,0,0-17.85-10.86,3.28,3.28,0,0,1-.46-.26,3.92,3.92,0,0,0-.47-.27c-1.06-.53-2.11-1.06-3.13-1.6s-2-1-3-1.46q-7.74-3.87-12.06-6.6a25.4,25.4,0,0,1-7.19-6.72,15.82,15.82,0,0,1-2.86-9.46V739.37c0-4.44,1.3-7.92,3.93-10.45s6.32-3.8,11.12-3.8q6.78,0,10.59,4.2T521.39,741V752l32.9-.4V740.7q0-15-5.59-25.77a37.75,37.75,0,0,0-16.25-16.31Q521.79,693,507,693q-15.19,0-26,5.6a38.06,38.06,0,0,0-16.44,16.18q-5.67,10.59-5.67,25.37v10q0,14.25,5.07,24a47,47,0,0,0,12.65,15.65A112.38,112.38,0,0,0,495,801.17l1.73.8,1,.53c.31.18.64.36,1,.54q8.12,4,12.85,6.86a27.52,27.52,0,0,1,7.73,6.79,14.88,14.88,0,0,1,3,9.26v16.91q0,7.2-3.93,11.32t-11.12,4.13q-7.32,0-11.45-4.19t-4.13-11.52V832.21l-32.9.26v10.39q0,15.06,5.8,25.77A38.94,38.94,0,0,0,481.3,885q10.92,5.65,26.11,5.66T533.24,885a38.28,38.28,0,0,0,16.45-16.39q5.67-10.71,5.66-25.77V826.75q0-14.12-4.79-23.18A40.62,40.62,0,0,0,539,789.52Z"/><path class="cls-2" d="M598.37,853.72c-1.56-1.65-2.33-4-2.33-7V695H563v157q0,17.46,8.93,27t24.9,9.59H609v-32.5h-4.12A8.45,8.45,0,0,1,598.37,853.72Z"/><rect class="cls-2" x="623.34" y="750.43" width="33.03" height="138.25"/><rect class="cls-2" x="623.34" y="695.02" width="33.03" height="32.76"/><path class="cls-2" d="M719.56,849.12c0,3.82-.92,6.77-2.73,8.86s-4.47,3.13-7.93,3.13-6-1-7.86-2.93-2.79-4.71-2.79-8.26V790.78q0-6.12,2.79-9.65a10.6,10.6,0,0,1,15.85.06q2.8,3.6,2.8,10.13v9h32.5v-12q0-12.79-5.13-21.85a33.27,33.27,0,0,0-15-13.78Q722.21,748,708.5,748t-23.44,4.73a33.45,33.45,0,0,0-14.85,13.72q-5.13,9-5.13,21.64v64.46q0,12,5.13,20.58a32.66,32.66,0,0,0,14.85,13.06q9.72,4.46,23.44,4.46t23.71-4.6a33.53,33.53,0,0,0,15-13.25q5.19-8.66,5.19-20.78V841.13l-32.89-.4Z"/><path class="cls-2" d="M815.64,846.59v4.8a9.22,9.22,0,0,1-2.8,7.19q-2.8,2.53-8,2.53c-3.73,0-6.6-1-8.59-3.06s-3-5-3-8.79V831.14h53.81V792q0-14-5.13-23.84a34.71,34.71,0,0,0-14.78-15Q817.5,748,803.78,748q-13.46,0-23,5.26a35,35,0,0,0-14.59,15.38q-5.06,10.13-5.06,24.38v55.14q0,13.45,5.2,23a34.54,34.54,0,0,0,15,14.51q9.79,5,23.51,5,20.24,0,31.43-10.46t11.19-29.5v-3.86ZM796,781.13a9.14,9.14,0,0,1,7.79-3.66,10.43,10.43,0,0,1,8.33,3.46q3,3.47,3,9.59V807H793.26V791.45Q793.26,784.79,796,781.13Z"/><path class="cls-2" d="M872.72,374.75V283.42A28.67,28.67,0,0,0,858.4,258.6L744.17,192.66l-58-33.51-18.94-10.93a28.64,28.64,0,0,0-28.65,0l-19.87,11.47-54.31,31.36-61.15,35.3L447.37,258.6A28.65,28.65,0,0,0,433,283.42v84.77A28.65,28.65,0,0,0,447.37,393l55.86,32.25,61.15,35.31,54.31,31.25v55.05l-26.06-15-79.65-46a19.5,19.5,0,0,1-9.75-16.89V453.45L433,412.83v91.35A28.65,28.65,0,0,0,447.37,529l117,67.55,54.31,31.36,19.87,11.47a28.64,28.64,0,0,0,28.65,0l18.94-10.93,58-33.5,58.37-33.7L858.4,529a28.67,28.67,0,0,0,14.32-24.82V418.9a28.65,28.65,0,0,0-14.31-24.3l-55.88-32.25-61.13-35.3-41.65-24v81l13.39,7.73,79.65,46a19.49,19.49,0,0,1,9.74,16.63v14.54A19.52,19.52,0,0,1,795,484.38a20,20,0,0,1-2.17,1.45L715,530.72,686.15,547.4V507.47l49.91-28.82-49.91-28.83-67.46-38.95-26.06-15.05-79.65-46a19.53,19.53,0,0,1-9.75-16.9h0V318.66a19.54,19.54,0,0,1,7.6-15.45,21.19,21.19,0,0,1,2.15-1.44l79.65-46,26.06-15v40.75l-48.27,27.87,48.27,27.88v57.93l67.46,38.95V240.2L715,256.88l77.76,44.89a19.48,19.48,0,0,1,9.75,16.89v15.48Z"/><rect class="cls-2" x="241.72" y="806.28" width="191.18" height="11.25"/><rect class="cls-2" x="873.1" y="806.28" width="191.18" height="11.25"/></svg>