<svg id="Layer_1" data-name="Layer 1" xmlns="http://www.w3.org/2000/svg" viewBox="0 0 1024 1024"><defs><style>.cls-1{fill:#222;}</style></defs><title>Slice logo dark 1</title><path class="cls-1" d="M915.65,243.87,542,28.12a59.9,59.9,0,0,0-59.9,0L108.35,243.87A59.91,59.91,0,0,0,78.4,295.75v431.5a59.91,59.91,0,0,0,29.95,51.88l373.7,215.75a59.9,59.9,0,0,0,59.9,0l373.7-215.75a59.91,59.91,0,0,0,30-51.88V295.75A59.91,59.91,0,0,0,915.65,243.87Zm-59.44,237.8L746.27,418.05V393.8A30.57,30.57,0,0,0,731,367.34L609.19,297,564,270.9V574.66l-105.66-61V422.9l-75.61-43.67,75.61-43.65V271.74l-40.81,23.57-124.77,72a31.08,31.08,0,0,0-3.38,2.26,30.56,30.56,0,0,0-11.89,24.2v22.37h0a30.55,30.55,0,0,0,15.27,26.46l124.77,72,40.81,23.57,105.66,61,78.19,45.15L564,689.55V752.1L609.19,726,731,655.66a31.78,31.78,0,0,0,3.39-2.27,30.59,30.59,0,0,0,11.89-24.19V606.42a30.56,30.56,0,0,0-15.27-26l-124.76-72-21-12.12V369.39l65.24,37.55,95.77,55.29,87.51,50.53a44.85,44.85,0,0,1,22.43,38.06V684.4a44.86,44.86,0,0,1-22.44,38.87l-87.49,50.52-91.43,52.79L564,879.05l-29.66,17.13a44.87,44.87,0,0,1-44.88,0l-31.12-18-85.08-49.12L189.93,723.27a44.86,44.86,0,0,1-22.44-38.87V541.31l110,63.63V629.2a30.56,30.56,0,0,0,15.27,26.46l124.77,72,40.81,23.57V665l-85.08-49-95.77-55.29-87.51-50.52a44.88,44.88,0,0,1-22.44-38.87V338.59a44.86,44.86,0,0,1,22.44-38.86l87.51-50.53,95.77-55.29,85.08-49.12,31.12-18a44.87,44.87,0,0,1,44.88,0L564,144l90.9,52.47L833.77,299.73a44.86,44.86,0,0,1,22.44,38.87Z"/></svg>