<svg id="Layer_1" data-name="Layer 1" xmlns="http://www.w3.org/2000/svg" viewBox="0 0 1024 1024"><defs><style>.cls-1{fill:#222;stroke:#ff9000;stroke-miterlimit:10;stroke-width:15px;}</style></defs><title>Slice logo orange 2</title><path class="cls-1" d="M512,36.76C249.81,36.76,37.26,249.31,37.26,511.5S249.81,986.24,512,986.24,986.74,773.69,986.74,511.5,774.19,36.76,512,36.76Zm235.22,320L616.48,281.28l-48.55-28v326l-113.42-65.5V416.4l-81.16-46.88,81.16-46.85V254.14l-43.81,25.3L276.78,356.76a31.44,31.44,0,0,0-3.63,2.43,32.79,32.79,0,0,0-12.77,26v24h0a32.8,32.8,0,0,0,16.4,28.4L410.7,514.9l43.81,25.3,113.42,65.5,83.93,48.47-83.93,48.45v67.14l48.55-28,130.74-75.48a32.81,32.81,0,0,0,16.4-28.4V613.39a32.76,32.76,0,0,0-16.38-28L613.32,508.11l-22.53-13V359l70,40.3,102.79,59.35,93.94,54.24a48.17,48.17,0,0,1,24.08,40.85V697.09a48.18,48.18,0,0,1-24.09,41.73L763.64,793,665.49,849.7,567.93,906l-31.84,18.38a48.16,48.16,0,0,1-48.18,0l-33.4-19.28L363.19,852.4,166.45,738.82a48.18,48.18,0,0,1-24.09-41.73V543.5l118,68.3v26a32.79,32.79,0,0,0,16.4,28.4L410.7,743.56l43.81,25.3V676.3l-91.32-52.56L260.38,564.39l-93.93-54.23a48.19,48.19,0,0,1-24.09-41.73V325.9a48.17,48.17,0,0,1,24.09-41.72L260.38,230,363.19,170.6l91.32-52.73,33.4-19.28a48.16,48.16,0,0,1,48.18,0L567.93,117l97.56,56.33L857.55,284.18a48.17,48.17,0,0,1,24.09,41.72V479.48l-118-68.29v-26A32.79,32.79,0,0,0,747.22,356.76Z"/></svg>