<svg id="Layer_1" data-name="Layer 1" xmlns="http://www.w3.org/2000/svg" viewBox="0 0 1024 1024"><defs><style>.cls-1{fill:#efefef;}</style></defs><title>logo-light-2</title><path class="cls-1" d="M746.39,629.72A125.53,125.53,0,0,0,621,504.33l-19.86-.16H394c-84.34,0-152.95-68.45-152.95-152.79A153.17,153.17,0,0,1,394,198.44H601C554.08,135.06,478.78,93.89,394,93.89c-125.32,0-229.95,90-252.81,208.75a258.42,258.42,0,0,0-4.68,48.74c0,142,115.51,257.5,257.49,257.5H621a20.85,20.85,0,1,1,0,41.69H104.27A258.07,258.07,0,0,0,311.9,755.11H621A125.53,125.53,0,0,0,746.39,629.72Z"/><path class="cls-1" d="M622.13,372.23h-227a20.85,20.85,0,1,1,0-41.69H911.88A258.06,258.06,0,0,0,704.25,226H395.16a125.39,125.39,0,0,0,0,250.78l19.86.16h31l176.15-.16c84.34,0,153,68.62,153,153a153.19,153.19,0,0,1-153,152.95h-207c46.95,63.37,122.25,104.54,207,104.54,125.32,0,230-90,252.81-208.76a258.31,258.31,0,0,0,4.68-48.73C879.62,487.74,764.11,372.23,622.13,372.23Z"/></svg>