<svg id="Layer_1" data-name="Layer 1" xmlns="http://www.w3.org/2000/svg" viewBox="0 0 1024 1024"><defs><style>.cls-1{fill:#222;}</style></defs><title>logo-dark-3</title><path class="cls-1" d="M666.61,583.37A83.73,83.73,0,0,0,583,499.74l-13.24-.11H431.59a102,102,0,0,1,0-203.91H569.65A171.57,171.57,0,0,0,431.59,226C348,226,278.22,286,263,365.22a171.63,171.63,0,0,0-3.13,32.51c0,94.7,77,171.74,171.74,171.74H583a13.91,13.91,0,1,1,0,27.81H238.33A172.12,172.12,0,0,0,376.81,667H583A83.73,83.73,0,0,0,666.61,583.37Z"/><path class="cls-1" d="M583.73,411.63H432.35a13.9,13.9,0,1,1,0-27.8H777A172.1,172.1,0,0,0,638.5,314.1H432.35a83.63,83.63,0,1,0,0,167.26l13.24.11h20.65l117.49-.11a102,102,0,0,1,0,204H445.67a171.57,171.57,0,0,0,138.06,69.73c83.58,0,153.37-60,168.61-139.24a171.45,171.45,0,0,0,3.12-32.5C755.46,488.68,678.42,411.63,583.73,411.63Z"/></svg>