<svg id="Layer_1" data-name="Layer 1" xmlns="http://www.w3.org/2000/svg" viewBox="0 0 1398.84 500"><defs><style>.cls-1{fill:#222;}.cls-2{fill:#ff9000;}</style></defs><title>logo-txt-orange-bg</title><rect class="cls-1" x="0.4" width="1398.43" height="500"/><circle class="cls-2" cx="850.49" cy="195.5" r="20.48"/><path class="cls-2" d="M390.22,333.53a74,74,0,0,0-73.91-73.91l-11.71-.09H182.52a90.1,90.1,0,0,1,0-180.2h122a151.64,151.64,0,0,0-122-61.62c-73.86,0-135.54,53.05-149,123a151.92,151.92,0,0,0-2.76,28.72c0,83.69,68.08,151.77,151.77,151.77H316.31a12.29,12.29,0,1,1,0,24.58H11.74a152.13,152.13,0,0,0,122.38,61.62H316.31A74,74,0,0,0,390.22,333.53Z"/><path class="cls-2" d="M317,181.76H183.2a12.29,12.29,0,1,1,0-24.57H487.76A152.1,152.1,0,0,0,365.38,95.57H183.2a73.91,73.91,0,1,0,0,147.81l11.7.1h18.25l103.83-.1a90.15,90.15,0,0,1,0,180.3H195A151.64,151.64,0,0,0,317,485.3c73.86,0,135.54-53.05,149-123a151.84,151.84,0,0,0,2.76-28.72C468.74,249.85,400.66,181.76,317,181.76Z"/><path class="cls-2" d="M728.17,409.69q-20.62,17.69-55.42,17.69H572.91V392.79H670c29.48,0,44-11.8,44-35.38,0-15.33-12.18-29.09-36.16-42.06l-66.43-35c-24-16.12-36.16-36.17-36.16-60.15,0-19.65,6.68-35.77,19.65-48.74,13.36-13,29.87-19.65,49.53-19.65h94.34v34.59H644.45c-20.05,0-33,12.18-33,32.23,0,13.37,12.18,26.34,36.16,38.92,41.28,21.22,63.68,33,66.83,35.37,24,17.3,36.16,38.53,36.16,63.68Q750.58,390.23,728.17,409.69Z"/><rect class="cls-2" x="773" y="151.83" width="34.01" height="275.55"/><rect class="cls-2" x="833.3" y="233.37" width="34.01" height="194.01"/><path class="cls-2" d="M1020.71,427.38H985.14c-27.08,0-49.71-9.3-68.3-27.89S889,358.26,889,331.18c0-28.29,8.89-51.73,27.08-69.92q27.29-27.88,69.11-27.89h35.57v33.95H990c-18.18,0-33.14,6.47-45.26,19C933,298.85,926.94,313.8,926.94,332c0,17.78,6.47,32.34,19,44.06s27.89,17.38,45.67,17.38h29.1Z"/><path class="cls-2" d="M1221.83,340.42q0,37.11-31.31,62.61c-19.71,16.23-41.74,24.35-66.86,24.35-25.5,0-47.53-9.28-66.47-27.44-18.55-18.17-27.82-40.19-27.82-65.7,0-28.21,8.89-52.17,26.28-71.5,17.77-19.71,40.58-29.37,68.79-29.37,39.8,0,70.33,19.71,90.82,58.74L1090,361.68l-14.68-27.44,92.36-51c-11.59-11.6-25.89-17.4-43.28-17.4-18.17,0-32.85,6.57-43.67,19.71-10.44,12.76-15.85,28.6-15.85,47.54,0,17.39,5.8,31.69,17.39,43.67,12,11.59,26.28,17.39,43.67,17.39,18.94,0,33.24-5.41,43.29-15.84,8.89-8.89,15.07-23.19,18.55-42.52Z"/><path class="cls-2" d="M1373.39,427.38c-32.73,0-58.6-15-76.79-44.87-14.95,29.91-39.61,44.87-74.77,44.87V393.43c16.16,0,29.91-6.47,41.22-19.81a63.2,63.2,0,0,0,16.17-43.25c0-17-5.25-31.52-16.17-44.05s-24.65-18.59-41.22-18.59v-34c34.35,0,59,15.76,74.77,47.69,5.66-15,15.76-26.68,30.72-35.57a87.7,87.7,0,0,1,46.07-12.53v34.36c-34.35,3.23-58.6,28.29-58.6,62.64,0,16.58,5.66,31.13,17,44.06,11.32,12.53,25.06,19,41.63,19Z"/></svg>