<svg id="Layer_1" data-name="Layer 1" xmlns="http://www.w3.org/2000/svg" viewBox="0 0 1024 1024"><defs><style>.cls-1{fill:#efefef;}</style></defs><title>logo-light-1</title><path class="cls-1" d="M791.73,653.83c0-81.12-66-147.11-147.11-147.11l-23.3-.19h-243c-98.94,0-179.44-80.31-179.44-179.26A179.7,179.7,0,0,1,378.33,147.84H621.19C566.1,73.49,477.76,25.18,378.33,25.18c-147,0-269.78,105.6-296.59,244.91a301.91,301.91,0,0,0-5.5,57.18c0,166.58,135.52,302.1,302.09,302.1H644.62a24.46,24.46,0,1,1,0,48.91H38.38C93.64,752.7,182.17,800.94,282,800.94H644.62C725.74,800.94,791.73,734.94,791.73,653.83Z"/><path class="cls-1" d="M646,351.73H379.66a24.46,24.46,0,1,1,0-48.91H985.89C930.63,228.4,842.1,180.17,742.29,180.17H379.66c-81.12,0-147.11,66-147.11,147.11s66,147.11,147.11,147.11l23.3.19h36.33L646,474.39c98.94,0,179.43,80.49,179.43,179.44A179.72,179.72,0,0,1,646,833.27H403.09C458.18,907.62,546.52,955.92,646,955.92c147,0,269.79-105.6,296.59-244.92a301.8,301.8,0,0,0,5.5-57.17C948,487.25,812.52,351.73,646,351.73Z"/></svg>