<svg id="Layer_1" data-name="Layer 1" xmlns="http://www.w3.org/2000/svg" viewBox="0 0 2287 578.33"><defs><style>.cls-1{fill:#222;}.cls-2{fill:#ddd;}</style></defs><title>Slice logo dark bg text</title><rect class="cls-1" width="2287" height="578.33"/><path class="cls-2" d="M458.73,162.2l-178.46-103a28.59,28.59,0,0,0-28.6,0L73.21,162.2A28.59,28.59,0,0,0,58.91,187V393a28.6,28.6,0,0,0,14.3,24.77l178.46,103a28.59,28.59,0,0,0,28.6,0l178.46-103A28.6,28.6,0,0,0,473,393V187A28.59,28.59,0,0,0,458.73,162.2ZM430.34,275.75l-52.5-30.38V233.79a14.57,14.57,0,0,0-7.3-12.63l-58.16-33.58-21.6-12.48V320.16L240.32,291V247.69l-36.11-20.85L240.32,206V175.5l-19.49,11.26-59.58,34.4a12.56,12.56,0,0,0-1.61,1.08A14.56,14.56,0,0,0,154,233.79v10.69h0a14.59,14.59,0,0,0,7.29,12.63l59.58,34.4,19.49,11.26,50.46,29.14,37.34,21.56L290.78,375v29.86l21.6-12.47,58.16-33.58a13.89,13.89,0,0,0,1.62-1.09,14.59,14.59,0,0,0,5.68-11.55V335.33a14.58,14.58,0,0,0-7.29-12.44L311,288.49l-10-5.79V222.13l31.16,17.94,45.73,26.4,41.79,24.13a21.4,21.4,0,0,1,10.71,18.17v63.8a21.44,21.44,0,0,1-10.71,18.56l-41.78,24.12-43.67,25.21-43.4,25.06-14.17,8.18a21.42,21.42,0,0,1-21.43,0l-14.86-8.58-40.63-23.46-87.52-50.53a21.45,21.45,0,0,1-10.72-18.56V304.23L154,334.62V346.2a14.6,14.6,0,0,0,7.29,12.64l59.58,34.4,19.49,11.25V363.31l-40.63-23.38L154,313.53,112.17,289.4a21.44,21.44,0,0,1-10.72-18.56V207.43a21.44,21.44,0,0,1,10.72-18.56L154,164.74l45.73-26.4,40.63-23.46,14.86-8.58a21.42,21.42,0,0,1,21.43,0l14.17,8.18,43.4,25.06,85.45,49.33a21.43,21.43,0,0,1,10.71,18.56Z"/><path class="cls-2" d="M770.58,457.28q-23.7,20.31-63.64,20.31H592.31V437.88H703.78c33.85,0,50.55-13.54,50.55-40.62,0-17.6-14-33.4-41.52-48.29L636.54,308.8C609,290.3,595,267.28,595,239.75c0-22.56,7.67-41.07,22.56-56,15.35-14.89,34.3-22.56,56.87-22.56H782.76v39.71H674.45c-23,0-37.91,14-37.91,37,0,15.34,14,30.24,41.52,44.68,47.39,24.37,73.11,37.91,76.72,40.61,27.53,19.86,41.52,44.23,41.52,73.12Q796.3,434.94,770.58,457.28Z"/><path class="cls-2" d="M877.08,477.59H837.37V161.23h39.71Z"/><path class="cls-2" d="M971.85,236.14A24.47,24.47,0,0,1,947,211.32c0-12.64,11.28-23,23.92-23a23.7,23.7,0,0,1,23.47,23.92C994.42,225.31,985.84,236.14,971.85,236.14Zm18.51,241.45H950.64V261h39.72Z"/><path class="cls-2" d="M1199.76,477.59H1160c-30.23,0-55.51-10.38-76.27-31.14s-31.14-46-31.14-76.27c0-31.59,9.93-57.77,30.24-78.08Q1113.34,261,1160,261h39.72v37.91h-34.3c-20.31,0-37,7.23-50.55,21.22-13.08,14-19.85,30.68-19.85,51,0,19.86,7.22,36.11,21.21,49.2s31.14,19.4,51,19.4h32.5Z"/><path class="cls-2" d="M1447.52,381.46q0,43.34-36.55,73.11c-23,19-48.75,28.44-78.08,28.44-29.79,0-55.51-10.83-77.62-32.05-21.67-21.21-32.5-46.93-32.5-76.72,0-32.94,10.38-60.92,30.69-83.49,20.76-23,47.39-34.3,80.33-34.3,46.49,0,82.14,23,106.06,68.6l-146.22,81.23-17.15-32,107.86-59.57c-13.54-13.54-30.24-20.31-50.55-20.31-21.21,0-38.36,7.67-51,23-12.18,14.89-18.5,33.39-18.5,55.51,0,20.31,6.77,37,20.31,51,14,13.54,30.69,20.3,51,20.3,22.11,0,38.81-6.31,50.54-18.5,10.38-10.38,17.6-27.08,21.67-49.64Z"/><path class="cls-2" d="M1626.68,477.59H1587c-30.24,0-55.51-10.38-76.27-31.14s-31.14-46-31.14-76.27c0-31.59,9.93-57.77,30.24-78.08Q1540.27,261,1587,261h39.71v37.91h-34.29c-20.31,0-37,7.23-50.55,21.22-13.09,14-19.86,30.68-19.86,51,0,19.86,7.22,36.11,21.21,49.2s31.14,19.4,51,19.4h32.49Z"/><path class="cls-2" d="M1844.21,447.35c-20.31,23-46,34.75-76.27,34.75q-50.78,0-85.3-31.14c-23.92-21.21-35.65-48.74-35.65-82.58l.9-1.81c0-30.24,10.83-56.41,32.95-77.62,22.11-21.67,48.74-32.5,79-32.5,32,0,59.12,10.38,80.78,31.59,22.11,21.21,32.94,47.39,32.94,79.43C1873.54,398.61,1863.62,425.24,1844.21,447.35Zm-83.49-153q-31.14,0-51.45,20.31c-13.09,13.09-19.86,30.24-19.86,51,0,23.92,6.32,42.42,18.51,56.41,13.08,14.89,31.14,22.11,54.6,22.11,46,0,69-26.62,69-80.33C1831.57,322.34,1802.69,294.36,1760.72,294.36Z"/><path class="cls-2" d="M1950.71,236.14a24.47,24.47,0,0,1-24.82-24.82c0-12.64,11.28-23,23.92-23a23.7,23.7,0,0,1,23.47,23.92C1973.28,225.31,1964.7,236.14,1950.71,236.14Zm18.51,241.45H1929.5V261h39.72Z"/><path class="cls-2" d="M2218.33,477.59h-39.71V349.87c0-31.14-22.12-56.41-52.8-56.41-14.45,0-27.08,5.41-37.46,15.79a50.11,50.11,0,0,0-15.35,37V477.59h-40.62V345.36c0-25.73,9-46.94,27.08-64.09q27.77-25.72,66.35-25.72c26.17,0,48.28,9,65.89,27.08s26.62,40.16,26.62,66.34Z"/></svg>