<svg id="Layer_1" data-name="Layer 1" xmlns="http://www.w3.org/2000/svg" viewBox="0 0 1024 1024"><defs><style>.cls-1{fill:#222;}.cls-2{fill:#ddd;}</style></defs><title>Slice logo dark bg 3</title><rect class="cls-1" width="1024" height="1024"/><path class="cls-2" d="M832.13,483.75V350.69a41.75,41.75,0,0,0-20.88-36.15l-166.4-96.08-84.54-48.8-27.58-15.93a41.74,41.74,0,0,0-41.75,0L462,170.44l-79.13,45.68-89.07,51.43-81.39,47a41.76,41.76,0,0,0-20.87,36.15V474.18a41.76,41.76,0,0,0,20.87,36.16l81.39,47,89.07,51.43L462,654.29v80.2l-38-21.92-116-67A28.41,28.41,0,0,1,293.84,621V598.4L191.58,539.22V672.31a41.76,41.76,0,0,0,20.87,36.15l170.46,98.42L462,852.56,491,869.27a41.74,41.74,0,0,0,41.75,0l27.58-15.93,84.54-48.8,85-49.1,81.37-47a41.75,41.75,0,0,0,20.88-36.15V548.07a41.76,41.76,0,0,0-20.86-35.4l-81.4-47-89.06-51.42-60.69-34.92v118l19.52,11.27,116,67a28.42,28.42,0,0,1,14.19,24.23V621a28.44,28.44,0,0,1-14.21,24.61L602.38,711l-42.07,24.29V677.1l72.72-42-72.72-42L462,536.37l-38-21.93-116-67a28.41,28.41,0,0,1-14.21-24.61h0V402a28.43,28.43,0,0,1,11.06-22.5,28.81,28.81,0,0,1,3.15-2.11l116-67,38-21.92v59.38l-70.32,40.6L462,429.1v84.39l98.27,56.75V287.73L602.38,312l113.28,65.4A28.43,28.43,0,0,1,729.87,402v22.56Z"/></svg>