<svg id="Layer_1" data-name="Layer 1" xmlns="http://www.w3.org/2000/svg" viewBox="0 0 1024 1024"><defs><style>.cls-1{fill:#222;}.cls-2{fill:#ddd;}</style></defs><title>Slice logo dark bg 1</title><rect class="cls-1" width="1024" height="1024"/><path class="cls-2" d="M838.94,294.73,536.26,120a48.51,48.51,0,0,0-48.52,0L185.06,294.73a48.52,48.52,0,0,0-24.26,42v349.5a48.52,48.52,0,0,0,24.26,42L487.74,903a48.51,48.51,0,0,0,48.52,0L838.94,728.27a48.52,48.52,0,0,0,24.26-42V336.75A48.52,48.52,0,0,0,838.94,294.73ZM790.8,487.34l-89-51.53V416.17a24.74,24.74,0,0,0-12.38-21.43l-98.65-57-36.64-21.16v246L468.5,513.23V439.74l-61.24-35.37L468.5,369V317.3l-33.06,19.09L334.38,394.74a23.21,23.21,0,0,0-2.73,1.83,24.74,24.74,0,0,0-9.64,19.6v18.12h0a24.76,24.76,0,0,0,12.37,21.43l101.06,58.34,33.06,19.1,85.58,49.42,63.33,36.57-63.33,36.57v50.66l36.64-21.16,98.65-57a23.52,23.52,0,0,0,2.75-1.84,24.74,24.74,0,0,0,9.63-19.59V588.39a24.75,24.75,0,0,0-12.37-21.11l-101-58.34-17-9.82V396.39l52.84,30.42,77.57,44.78,70.88,40.93a36.34,36.34,0,0,1,18.17,30.82V651.55A36.35,36.35,0,0,1,772.62,683l-70.86,40.91L627.7,766.7l-73.62,42.51-24,13.87a36.38,36.38,0,0,1-36.36,0l-25.2-14.55-68.91-39.79L251.14,683A36.35,36.35,0,0,1,233,651.55V535.64l89,51.54v19.65a24.76,24.76,0,0,0,12.37,21.43l101.06,58.35L468.5,705.7V635.85l-68.91-39.66L322,551.41l-70.87-40.92A36.37,36.37,0,0,1,233,479V371.45A36.34,36.34,0,0,1,251.14,340L322,299.05l77.58-44.79,68.91-39.79,25.2-14.55a36.38,36.38,0,0,1,36.36,0l24,13.87L627.7,256.3,772.62,340a36.35,36.35,0,0,1,18.18,31.48Z"/></svg>