<svg id="Layer_1" data-name="Layer 1" xmlns="http://www.w3.org/2000/svg" viewBox="0 0 1024 1024"><defs><style>.cls-1{fill:#222;}.cls-2{fill:#ddd;}</style></defs><title>Slice logo dark bg 2</title><rect class="cls-1" width="1024" height="1024"/><path class="cls-2" d="M512,130.5c-210.42,0-381,170.58-381,381s170.58,381,381,381,381-170.58,381-381S722.42,130.5,512,130.5ZM700.78,387.31,595.86,326.73l-39-22.5V565.91l-91-52.57V435.17l-65.14-37.61L465.86,360V305l-35.16,20.3L323.22,387.31a26.33,26.33,0,0,0-13.16,22.8v19.27h0a26.32,26.32,0,0,0,13.16,22.79L430.7,514.23l35.16,20.3,91,52.57L624.24,626l-67.36,38.89v53.88l39-22.5,104.92-60.58a25.65,25.65,0,0,0,2.92-2,26.31,26.31,0,0,0,10.24-20.84V593.27a26.31,26.31,0,0,0-13.15-22.44L593.31,508.78l-18.07-10.44V389.08l56.2,32.34,82.5,47.63,75.4,43.53a38.67,38.67,0,0,1,19.32,32.79V660.45a38.66,38.66,0,0,1-19.34,33.49L714,737.45l-78.76,45.48-78.31,45.21-25.55,14.75a38.64,38.64,0,0,1-38.66,0l-26.81-15.48L392.57,785.1,234.68,693.94a38.66,38.66,0,0,1-19.34-33.49V537.18L310.06,592v20.9a26.33,26.33,0,0,0,13.16,22.8l107.48,62L465.86,718V643.76l-73.29-42.18-82.51-47.64-75.38-43.52a38.66,38.66,0,0,1-19.34-33.49V362.55a38.66,38.66,0,0,1,19.34-33.49l75.38-43.52,82.51-47.64,73.29-42.31,26.81-15.48a38.64,38.64,0,0,1,38.66,0l25.55,14.75,78.31,45.21,154.13,89a38.66,38.66,0,0,1,19.34,33.49V485.8L713.94,431V410.11A26.33,26.33,0,0,0,700.78,387.31Z"/></svg>